<mxfile host="app.diagrams.net" agent="Mozilla/5.0 (Macintosh; Intel Mac OS X 10_15_7) AppleWebKit/537.36 (KHTML, like Gecko) Chrome/134.0.0.0 Safari/537.36" version="26.1.3">
  <diagram name="第 1 页" id="sEjlx3RewKqvaWKbwFGU">
    <mxGraphModel dx="1270" dy="821" grid="1" gridSize="10" guides="1" tooltips="1" connect="1" arrows="1" fold="1" page="1" pageScale="1" pageWidth="827" pageHeight="1169" math="0" shadow="0">
      <root>
        <mxCell id="0" />
        <mxCell id="1" parent="0" />
        <mxCell id="_Ipn6IFRlJqgF_Zz0ZzA-104" value="" style="rounded=0;whiteSpace=wrap;html=1;" vertex="1" parent="1">
          <mxGeometry width="1120" height="620" as="geometry" />
        </mxCell>
        <mxCell id="_Ipn6IFRlJqgF_Zz0ZzA-1" value="" style="rounded=0;whiteSpace=wrap;html=1;" vertex="1" parent="1">
          <mxGeometry x="120" y="85" width="150" height="240" as="geometry" />
        </mxCell>
        <mxCell id="_Ipn6IFRlJqgF_Zz0ZzA-2" value="" style="rounded=0;whiteSpace=wrap;html=1;" vertex="1" parent="1">
          <mxGeometry x="140" y="105" width="150" height="240" as="geometry" />
        </mxCell>
        <mxCell id="_Ipn6IFRlJqgF_Zz0ZzA-3" value="" style="rounded=0;whiteSpace=wrap;html=1;fillColor=#fff2cc;strokeColor=#d6b656;" vertex="1" parent="1">
          <mxGeometry x="170" y="125" width="150" height="240" as="geometry" />
        </mxCell>
        <mxCell id="_Ipn6IFRlJqgF_Zz0ZzA-4" value="程序计数器" style="rounded=0;whiteSpace=wrap;html=1;" vertex="1" parent="1">
          <mxGeometry x="187" y="141" width="115" height="20" as="geometry" />
        </mxCell>
        <mxCell id="_Ipn6IFRlJqgF_Zz0ZzA-18" value="每个线程一份" style="text;html=1;align=center;verticalAlign=middle;whiteSpace=wrap;rounded=0;" vertex="1" parent="1">
          <mxGeometry x="107.5" y="85" width="150" height="30" as="geometry" />
        </mxCell>
        <mxCell id="_Ipn6IFRlJqgF_Zz0ZzA-19" value="" style="rounded=0;whiteSpace=wrap;html=1;fillColor=#1ba1e2;fontColor=#ffffff;strokeColor=#006EAF;" vertex="1" parent="1">
          <mxGeometry x="70" y="405" width="420" height="120" as="geometry" />
        </mxCell>
        <mxCell id="_Ipn6IFRlJqgF_Zz0ZzA-22" value="动态链接" style="rounded=0;whiteSpace=wrap;html=1;" vertex="1" parent="1">
          <mxGeometry x="440" y="420" width="30" height="90" as="geometry" />
        </mxCell>
        <mxCell id="_Ipn6IFRlJqgF_Zz0ZzA-23" value="方法返回地址" style="rounded=0;whiteSpace=wrap;html=1;" vertex="1" parent="1">
          <mxGeometry x="330" y="435" width="80" height="60" as="geometry" />
        </mxCell>
        <mxCell id="_Ipn6IFRlJqgF_Zz0ZzA-24" value="额外信息" style="rounded=0;whiteSpace=wrap;html=1;" vertex="1" parent="1">
          <mxGeometry x="77.5" y="425" width="30" height="80" as="geometry" />
        </mxCell>
        <mxCell id="_Ipn6IFRlJqgF_Zz0ZzA-27" value="" style="shape=table;startSize=0;container=1;collapsible=0;childLayout=tableLayout;" vertex="1" parent="1">
          <mxGeometry x="180" y="187" width="60" height="160" as="geometry" />
        </mxCell>
        <mxCell id="_Ipn6IFRlJqgF_Zz0ZzA-28" value="" style="shape=tableRow;horizontal=0;startSize=0;swimlaneHead=0;swimlaneBody=0;strokeColor=inherit;top=0;left=0;bottom=0;right=0;collapsible=0;dropTarget=0;fillColor=none;points=[[0,0.5],[1,0.5]];portConstraint=eastwest;" vertex="1" parent="_Ipn6IFRlJqgF_Zz0ZzA-27">
          <mxGeometry width="60" height="40" as="geometry" />
        </mxCell>
        <mxCell id="_Ipn6IFRlJqgF_Zz0ZzA-29" value="" style="shape=partialRectangle;html=1;whiteSpace=wrap;connectable=0;strokeColor=inherit;overflow=hidden;fillColor=none;top=0;left=0;bottom=0;right=0;pointerEvents=1;" vertex="1" parent="_Ipn6IFRlJqgF_Zz0ZzA-28">
          <mxGeometry width="60" height="40" as="geometry">
            <mxRectangle width="60" height="40" as="alternateBounds" />
          </mxGeometry>
        </mxCell>
        <mxCell id="_Ipn6IFRlJqgF_Zz0ZzA-30" value="" style="shape=tableRow;horizontal=0;startSize=0;swimlaneHead=0;swimlaneBody=0;strokeColor=inherit;top=0;left=0;bottom=0;right=0;collapsible=0;dropTarget=0;fillColor=none;points=[[0,0.5],[1,0.5]];portConstraint=eastwest;" vertex="1" parent="_Ipn6IFRlJqgF_Zz0ZzA-27">
          <mxGeometry y="40" width="60" height="40" as="geometry" />
        </mxCell>
        <mxCell id="_Ipn6IFRlJqgF_Zz0ZzA-31" value="" style="shape=partialRectangle;html=1;whiteSpace=wrap;connectable=0;strokeColor=inherit;overflow=hidden;fillColor=none;top=0;left=0;bottom=0;right=0;pointerEvents=1;" vertex="1" parent="_Ipn6IFRlJqgF_Zz0ZzA-30">
          <mxGeometry width="60" height="40" as="geometry">
            <mxRectangle width="60" height="40" as="alternateBounds" />
          </mxGeometry>
        </mxCell>
        <mxCell id="_Ipn6IFRlJqgF_Zz0ZzA-32" value="" style="shape=tableRow;horizontal=0;startSize=0;swimlaneHead=0;swimlaneBody=0;strokeColor=inherit;top=0;left=0;bottom=0;right=0;collapsible=0;dropTarget=0;fillColor=none;points=[[0,0.5],[1,0.5]];portConstraint=eastwest;" vertex="1" parent="_Ipn6IFRlJqgF_Zz0ZzA-27">
          <mxGeometry y="80" width="60" height="40" as="geometry" />
        </mxCell>
        <mxCell id="_Ipn6IFRlJqgF_Zz0ZzA-33" value="" style="shape=partialRectangle;html=1;whiteSpace=wrap;connectable=0;strokeColor=inherit;overflow=hidden;fillColor=none;top=0;left=0;bottom=0;right=0;pointerEvents=1;" vertex="1" parent="_Ipn6IFRlJqgF_Zz0ZzA-32">
          <mxGeometry width="60" height="40" as="geometry">
            <mxRectangle width="60" height="40" as="alternateBounds" />
          </mxGeometry>
        </mxCell>
        <mxCell id="_Ipn6IFRlJqgF_Zz0ZzA-35" style="shape=tableRow;horizontal=0;startSize=0;swimlaneHead=0;swimlaneBody=0;strokeColor=inherit;top=0;left=0;bottom=0;right=0;collapsible=0;dropTarget=0;fillColor=none;points=[[0,0.5],[1,0.5]];portConstraint=eastwest;" vertex="1" parent="_Ipn6IFRlJqgF_Zz0ZzA-27">
          <mxGeometry y="120" width="60" height="40" as="geometry" />
        </mxCell>
        <mxCell id="_Ipn6IFRlJqgF_Zz0ZzA-36" style="shape=partialRectangle;html=1;whiteSpace=wrap;connectable=0;strokeColor=inherit;overflow=hidden;fillColor=none;top=0;left=0;bottom=0;right=0;pointerEvents=1;" vertex="1" parent="_Ipn6IFRlJqgF_Zz0ZzA-35">
          <mxGeometry width="60" height="40" as="geometry">
            <mxRectangle width="60" height="40" as="alternateBounds" />
          </mxGeometry>
        </mxCell>
        <mxCell id="_Ipn6IFRlJqgF_Zz0ZzA-38" value="" style="shape=table;startSize=0;container=1;collapsible=0;childLayout=tableLayout;" vertex="1" parent="1">
          <mxGeometry x="250" y="187" width="60" height="160" as="geometry" />
        </mxCell>
        <mxCell id="_Ipn6IFRlJqgF_Zz0ZzA-39" value="" style="shape=tableRow;horizontal=0;startSize=0;swimlaneHead=0;swimlaneBody=0;strokeColor=inherit;top=0;left=0;bottom=0;right=0;collapsible=0;dropTarget=0;fillColor=none;points=[[0,0.5],[1,0.5]];portConstraint=eastwest;" vertex="1" parent="_Ipn6IFRlJqgF_Zz0ZzA-38">
          <mxGeometry width="60" height="40" as="geometry" />
        </mxCell>
        <mxCell id="_Ipn6IFRlJqgF_Zz0ZzA-40" value="" style="shape=partialRectangle;html=1;whiteSpace=wrap;connectable=0;strokeColor=inherit;overflow=hidden;fillColor=none;top=0;left=0;bottom=0;right=0;pointerEvents=1;" vertex="1" parent="_Ipn6IFRlJqgF_Zz0ZzA-39">
          <mxGeometry width="60" height="40" as="geometry">
            <mxRectangle width="60" height="40" as="alternateBounds" />
          </mxGeometry>
        </mxCell>
        <mxCell id="_Ipn6IFRlJqgF_Zz0ZzA-41" value="" style="shape=tableRow;horizontal=0;startSize=0;swimlaneHead=0;swimlaneBody=0;strokeColor=inherit;top=0;left=0;bottom=0;right=0;collapsible=0;dropTarget=0;fillColor=none;points=[[0,0.5],[1,0.5]];portConstraint=eastwest;" vertex="1" parent="_Ipn6IFRlJqgF_Zz0ZzA-38">
          <mxGeometry y="40" width="60" height="40" as="geometry" />
        </mxCell>
        <mxCell id="_Ipn6IFRlJqgF_Zz0ZzA-42" value="" style="shape=partialRectangle;html=1;whiteSpace=wrap;connectable=0;strokeColor=inherit;overflow=hidden;fillColor=none;top=0;left=0;bottom=0;right=0;pointerEvents=1;" vertex="1" parent="_Ipn6IFRlJqgF_Zz0ZzA-41">
          <mxGeometry width="60" height="40" as="geometry">
            <mxRectangle width="60" height="40" as="alternateBounds" />
          </mxGeometry>
        </mxCell>
        <mxCell id="_Ipn6IFRlJqgF_Zz0ZzA-43" value="" style="shape=tableRow;horizontal=0;startSize=0;swimlaneHead=0;swimlaneBody=0;strokeColor=inherit;top=0;left=0;bottom=0;right=0;collapsible=0;dropTarget=0;fillColor=none;points=[[0,0.5],[1,0.5]];portConstraint=eastwest;" vertex="1" parent="_Ipn6IFRlJqgF_Zz0ZzA-38">
          <mxGeometry y="80" width="60" height="40" as="geometry" />
        </mxCell>
        <mxCell id="_Ipn6IFRlJqgF_Zz0ZzA-44" value="" style="shape=partialRectangle;html=1;whiteSpace=wrap;connectable=0;strokeColor=inherit;overflow=hidden;fillColor=none;top=0;left=0;bottom=0;right=0;pointerEvents=1;" vertex="1" parent="_Ipn6IFRlJqgF_Zz0ZzA-43">
          <mxGeometry width="60" height="40" as="geometry">
            <mxRectangle width="60" height="40" as="alternateBounds" />
          </mxGeometry>
        </mxCell>
        <mxCell id="_Ipn6IFRlJqgF_Zz0ZzA-45" style="shape=tableRow;horizontal=0;startSize=0;swimlaneHead=0;swimlaneBody=0;strokeColor=inherit;top=0;left=0;bottom=0;right=0;collapsible=0;dropTarget=0;fillColor=none;points=[[0,0.5],[1,0.5]];portConstraint=eastwest;" vertex="1" parent="_Ipn6IFRlJqgF_Zz0ZzA-38">
          <mxGeometry y="120" width="60" height="40" as="geometry" />
        </mxCell>
        <mxCell id="_Ipn6IFRlJqgF_Zz0ZzA-46" style="shape=partialRectangle;html=1;whiteSpace=wrap;connectable=0;strokeColor=#006EAF;overflow=hidden;fillColor=#1ba1e2;top=0;left=0;bottom=0;right=0;pointerEvents=1;fontColor=#ffffff;" vertex="1" parent="_Ipn6IFRlJqgF_Zz0ZzA-45">
          <mxGeometry width="60" height="40" as="geometry">
            <mxRectangle width="60" height="40" as="alternateBounds" />
          </mxGeometry>
        </mxCell>
        <mxCell id="_Ipn6IFRlJqgF_Zz0ZzA-7" value="本地方法栈" style="text;html=1;align=center;verticalAlign=middle;whiteSpace=wrap;rounded=0;fontSize=11;" vertex="1" parent="1">
          <mxGeometry x="180" y="190" width="60" height="30" as="geometry" />
        </mxCell>
        <mxCell id="_Ipn6IFRlJqgF_Zz0ZzA-12" value="栈" style="text;html=1;align=center;verticalAlign=middle;whiteSpace=wrap;rounded=0;fontSize=11;" vertex="1" parent="1">
          <mxGeometry x="250" y="190" width="60" height="30" as="geometry" />
        </mxCell>
        <mxCell id="_Ipn6IFRlJqgF_Zz0ZzA-47" value="" style="shape=table;startSize=0;container=1;collapsible=0;childLayout=tableLayout;" vertex="1" parent="1">
          <mxGeometry x="120" y="455" width="110" height="20" as="geometry" />
        </mxCell>
        <mxCell id="_Ipn6IFRlJqgF_Zz0ZzA-48" value="" style="shape=tableRow;horizontal=0;startSize=0;swimlaneHead=0;swimlaneBody=0;strokeColor=inherit;top=0;left=0;bottom=0;right=0;collapsible=0;dropTarget=0;fillColor=none;points=[[0,0.5],[1,0.5]];portConstraint=eastwest;" vertex="1" parent="_Ipn6IFRlJqgF_Zz0ZzA-47">
          <mxGeometry width="110" height="20" as="geometry" />
        </mxCell>
        <mxCell id="_Ipn6IFRlJqgF_Zz0ZzA-49" value="" style="shape=partialRectangle;html=1;whiteSpace=wrap;connectable=0;strokeColor=inherit;overflow=hidden;fillColor=none;top=0;left=0;bottom=0;right=0;pointerEvents=1;" vertex="1" parent="_Ipn6IFRlJqgF_Zz0ZzA-48">
          <mxGeometry width="22" height="20" as="geometry">
            <mxRectangle width="22" height="20" as="alternateBounds" />
          </mxGeometry>
        </mxCell>
        <mxCell id="_Ipn6IFRlJqgF_Zz0ZzA-50" value="" style="shape=partialRectangle;html=1;whiteSpace=wrap;connectable=0;strokeColor=inherit;overflow=hidden;fillColor=none;top=0;left=0;bottom=0;right=0;pointerEvents=1;" vertex="1" parent="_Ipn6IFRlJqgF_Zz0ZzA-48">
          <mxGeometry x="22" width="22" height="20" as="geometry">
            <mxRectangle width="22" height="20" as="alternateBounds" />
          </mxGeometry>
        </mxCell>
        <mxCell id="_Ipn6IFRlJqgF_Zz0ZzA-51" value="" style="shape=partialRectangle;html=1;whiteSpace=wrap;connectable=0;strokeColor=inherit;overflow=hidden;fillColor=none;top=0;left=0;bottom=0;right=0;pointerEvents=1;" vertex="1" parent="_Ipn6IFRlJqgF_Zz0ZzA-48">
          <mxGeometry x="44" width="22" height="20" as="geometry">
            <mxRectangle width="22" height="20" as="alternateBounds" />
          </mxGeometry>
        </mxCell>
        <mxCell id="_Ipn6IFRlJqgF_Zz0ZzA-52" value="" style="shape=partialRectangle;html=1;whiteSpace=wrap;connectable=0;strokeColor=inherit;overflow=hidden;fillColor=none;top=0;left=0;bottom=0;right=0;pointerEvents=1;" vertex="1" parent="_Ipn6IFRlJqgF_Zz0ZzA-48">
          <mxGeometry x="66" width="22" height="20" as="geometry">
            <mxRectangle width="22" height="20" as="alternateBounds" />
          </mxGeometry>
        </mxCell>
        <mxCell id="_Ipn6IFRlJqgF_Zz0ZzA-53" value="" style="shape=partialRectangle;html=1;whiteSpace=wrap;connectable=0;strokeColor=inherit;overflow=hidden;fillColor=none;top=0;left=0;bottom=0;right=0;pointerEvents=1;" vertex="1" parent="_Ipn6IFRlJqgF_Zz0ZzA-48">
          <mxGeometry x="88" width="22" height="20" as="geometry">
            <mxRectangle width="22" height="20" as="alternateBounds" />
          </mxGeometry>
        </mxCell>
        <mxCell id="_Ipn6IFRlJqgF_Zz0ZzA-54" value="" style="shape=table;startSize=0;container=1;collapsible=0;childLayout=tableLayout;" vertex="1" parent="1">
          <mxGeometry x="260" y="445" width="40" height="60" as="geometry" />
        </mxCell>
        <mxCell id="_Ipn6IFRlJqgF_Zz0ZzA-55" value="" style="shape=tableRow;horizontal=0;startSize=0;swimlaneHead=0;swimlaneBody=0;strokeColor=inherit;top=0;left=0;bottom=0;right=0;collapsible=0;dropTarget=0;fillColor=none;points=[[0,0.5],[1,0.5]];portConstraint=eastwest;" vertex="1" parent="_Ipn6IFRlJqgF_Zz0ZzA-54">
          <mxGeometry width="40" height="15" as="geometry" />
        </mxCell>
        <mxCell id="_Ipn6IFRlJqgF_Zz0ZzA-56" value="" style="shape=partialRectangle;html=1;whiteSpace=wrap;connectable=0;strokeColor=inherit;overflow=hidden;fillColor=none;top=0;left=0;bottom=0;right=0;pointerEvents=1;" vertex="1" parent="_Ipn6IFRlJqgF_Zz0ZzA-55">
          <mxGeometry width="40" height="15" as="geometry">
            <mxRectangle width="40" height="15" as="alternateBounds" />
          </mxGeometry>
        </mxCell>
        <mxCell id="_Ipn6IFRlJqgF_Zz0ZzA-57" value="" style="shape=tableRow;horizontal=0;startSize=0;swimlaneHead=0;swimlaneBody=0;strokeColor=inherit;top=0;left=0;bottom=0;right=0;collapsible=0;dropTarget=0;fillColor=none;points=[[0,0.5],[1,0.5]];portConstraint=eastwest;" vertex="1" parent="_Ipn6IFRlJqgF_Zz0ZzA-54">
          <mxGeometry y="15" width="40" height="15" as="geometry" />
        </mxCell>
        <mxCell id="_Ipn6IFRlJqgF_Zz0ZzA-58" value="" style="shape=partialRectangle;html=1;whiteSpace=wrap;connectable=0;strokeColor=inherit;overflow=hidden;fillColor=none;top=0;left=0;bottom=0;right=0;pointerEvents=1;" vertex="1" parent="_Ipn6IFRlJqgF_Zz0ZzA-57">
          <mxGeometry width="40" height="15" as="geometry">
            <mxRectangle width="40" height="15" as="alternateBounds" />
          </mxGeometry>
        </mxCell>
        <mxCell id="_Ipn6IFRlJqgF_Zz0ZzA-59" value="" style="shape=tableRow;horizontal=0;startSize=0;swimlaneHead=0;swimlaneBody=0;strokeColor=inherit;top=0;left=0;bottom=0;right=0;collapsible=0;dropTarget=0;fillColor=none;points=[[0,0.5],[1,0.5]];portConstraint=eastwest;" vertex="1" parent="_Ipn6IFRlJqgF_Zz0ZzA-54">
          <mxGeometry y="30" width="40" height="15" as="geometry" />
        </mxCell>
        <mxCell id="_Ipn6IFRlJqgF_Zz0ZzA-60" value="" style="shape=partialRectangle;html=1;whiteSpace=wrap;connectable=0;strokeColor=inherit;overflow=hidden;fillColor=none;top=0;left=0;bottom=0;right=0;pointerEvents=1;" vertex="1" parent="_Ipn6IFRlJqgF_Zz0ZzA-59">
          <mxGeometry width="40" height="15" as="geometry">
            <mxRectangle width="40" height="15" as="alternateBounds" />
          </mxGeometry>
        </mxCell>
        <mxCell id="_Ipn6IFRlJqgF_Zz0ZzA-61" value="" style="shape=tableRow;horizontal=0;startSize=0;swimlaneHead=0;swimlaneBody=0;strokeColor=inherit;top=0;left=0;bottom=0;right=0;collapsible=0;dropTarget=0;fillColor=none;points=[[0,0.5],[1,0.5]];portConstraint=eastwest;" vertex="1" parent="_Ipn6IFRlJqgF_Zz0ZzA-54">
          <mxGeometry y="45" width="40" height="15" as="geometry" />
        </mxCell>
        <mxCell id="_Ipn6IFRlJqgF_Zz0ZzA-62" value="" style="shape=partialRectangle;html=1;whiteSpace=wrap;connectable=0;strokeColor=inherit;overflow=hidden;fillColor=none;top=0;left=0;bottom=0;right=0;pointerEvents=1;" vertex="1" parent="_Ipn6IFRlJqgF_Zz0ZzA-61">
          <mxGeometry width="40" height="15" as="geometry">
            <mxRectangle width="40" height="15" as="alternateBounds" />
          </mxGeometry>
        </mxCell>
        <mxCell id="_Ipn6IFRlJqgF_Zz0ZzA-65" value="局部变量表" style="text;html=1;align=center;verticalAlign=middle;whiteSpace=wrap;rounded=0;" vertex="1" parent="1">
          <mxGeometry x="130" y="425" width="90" height="25" as="geometry" />
        </mxCell>
        <mxCell id="_Ipn6IFRlJqgF_Zz0ZzA-66" value="操作数栈" style="text;html=1;align=center;verticalAlign=middle;whiteSpace=wrap;rounded=0;" vertex="1" parent="1">
          <mxGeometry x="250" y="415" width="60" height="30" as="geometry" />
        </mxCell>
        <mxCell id="_Ipn6IFRlJqgF_Zz0ZzA-67" value="" style="rounded=0;whiteSpace=wrap;html=1;" vertex="1" parent="1">
          <mxGeometry x="544" y="113" width="220" height="410" as="geometry" />
        </mxCell>
        <mxCell id="_Ipn6IFRlJqgF_Zz0ZzA-68" value="方法区" style="text;html=1;align=center;verticalAlign=middle;whiteSpace=wrap;rounded=0;" vertex="1" parent="1">
          <mxGeometry x="614" y="73" width="60" height="30" as="geometry" />
        </mxCell>
        <mxCell id="_Ipn6IFRlJqgF_Zz0ZzA-69" value="类型信息" style="rounded=0;whiteSpace=wrap;html=1;" vertex="1" parent="1">
          <mxGeometry x="594" y="143" width="120" height="40" as="geometry" />
        </mxCell>
        <mxCell id="_Ipn6IFRlJqgF_Zz0ZzA-70" value="域信息" style="rounded=0;whiteSpace=wrap;html=1;" vertex="1" parent="1">
          <mxGeometry x="594" y="198" width="120" height="45" as="geometry" />
        </mxCell>
        <mxCell id="_Ipn6IFRlJqgF_Zz0ZzA-71" value="方法信息" style="rounded=0;whiteSpace=wrap;html=1;" vertex="1" parent="1">
          <mxGeometry x="594" y="255" width="120" height="40" as="geometry" />
        </mxCell>
        <mxCell id="_Ipn6IFRlJqgF_Zz0ZzA-73" value="" style="shape=table;startSize=0;container=1;collapsible=0;childLayout=tableLayout;" vertex="1" parent="1">
          <mxGeometry x="594" y="313" width="120" height="200" as="geometry" />
        </mxCell>
        <mxCell id="_Ipn6IFRlJqgF_Zz0ZzA-74" value="" style="shape=tableRow;horizontal=0;startSize=0;swimlaneHead=0;swimlaneBody=0;strokeColor=inherit;top=0;left=0;bottom=0;right=0;collapsible=0;dropTarget=0;fillColor=none;points=[[0,0.5],[1,0.5]];portConstraint=eastwest;" vertex="1" parent="_Ipn6IFRlJqgF_Zz0ZzA-73">
          <mxGeometry width="120" height="40" as="geometry" />
        </mxCell>
        <mxCell id="_Ipn6IFRlJqgF_Zz0ZzA-75" value="运行时常量池" style="shape=partialRectangle;html=1;whiteSpace=wrap;connectable=0;strokeColor=inherit;overflow=hidden;fillColor=none;top=0;left=0;bottom=0;right=0;pointerEvents=1;" vertex="1" parent="_Ipn6IFRlJqgF_Zz0ZzA-74">
          <mxGeometry width="120" height="40" as="geometry">
            <mxRectangle width="120" height="40" as="alternateBounds" />
          </mxGeometry>
        </mxCell>
        <mxCell id="_Ipn6IFRlJqgF_Zz0ZzA-76" value="" style="shape=tableRow;horizontal=0;startSize=0;swimlaneHead=0;swimlaneBody=0;strokeColor=inherit;top=0;left=0;bottom=0;right=0;collapsible=0;dropTarget=0;fillColor=none;points=[[0,0.5],[1,0.5]];portConstraint=eastwest;" vertex="1" parent="_Ipn6IFRlJqgF_Zz0ZzA-73">
          <mxGeometry y="40" width="120" height="40" as="geometry" />
        </mxCell>
        <mxCell id="_Ipn6IFRlJqgF_Zz0ZzA-77" value="string constant" style="shape=partialRectangle;html=1;whiteSpace=wrap;connectable=0;strokeColor=inherit;overflow=hidden;fillColor=none;top=0;left=0;bottom=0;right=0;pointerEvents=1;" vertex="1" parent="_Ipn6IFRlJqgF_Zz0ZzA-76">
          <mxGeometry width="120" height="40" as="geometry">
            <mxRectangle width="120" height="40" as="alternateBounds" />
          </mxGeometry>
        </mxCell>
        <mxCell id="_Ipn6IFRlJqgF_Zz0ZzA-78" value="" style="shape=tableRow;horizontal=0;startSize=0;swimlaneHead=0;swimlaneBody=0;strokeColor=inherit;top=0;left=0;bottom=0;right=0;collapsible=0;dropTarget=0;fillColor=none;points=[[0,0.5],[1,0.5]];portConstraint=eastwest;" vertex="1" parent="_Ipn6IFRlJqgF_Zz0ZzA-73">
          <mxGeometry y="80" width="120" height="40" as="geometry" />
        </mxCell>
        <mxCell id="_Ipn6IFRlJqgF_Zz0ZzA-79" value="method references" style="shape=partialRectangle;html=1;whiteSpace=wrap;connectable=0;strokeColor=#2D7600;overflow=hidden;fillColor=#60a917;top=0;left=0;bottom=0;right=0;pointerEvents=1;fontColor=#ffffff;" vertex="1" parent="_Ipn6IFRlJqgF_Zz0ZzA-78">
          <mxGeometry width="120" height="40" as="geometry">
            <mxRectangle width="120" height="40" as="alternateBounds" />
          </mxGeometry>
        </mxCell>
        <mxCell id="_Ipn6IFRlJqgF_Zz0ZzA-80" value="" style="shape=tableRow;horizontal=0;startSize=0;swimlaneHead=0;swimlaneBody=0;strokeColor=inherit;top=0;left=0;bottom=0;right=0;collapsible=0;dropTarget=0;fillColor=none;points=[[0,0.5],[1,0.5]];portConstraint=eastwest;" vertex="1" parent="_Ipn6IFRlJqgF_Zz0ZzA-73">
          <mxGeometry y="120" width="120" height="40" as="geometry" />
        </mxCell>
        <mxCell id="_Ipn6IFRlJqgF_Zz0ZzA-81" value="numberic constant" style="shape=partialRectangle;html=1;whiteSpace=wrap;connectable=0;strokeColor=inherit;overflow=hidden;fillColor=none;top=0;left=0;bottom=0;right=0;pointerEvents=1;" vertex="1" parent="_Ipn6IFRlJqgF_Zz0ZzA-80">
          <mxGeometry width="120" height="40" as="geometry">
            <mxRectangle width="120" height="40" as="alternateBounds" />
          </mxGeometry>
        </mxCell>
        <mxCell id="_Ipn6IFRlJqgF_Zz0ZzA-82" value="" style="shape=tableRow;horizontal=0;startSize=0;swimlaneHead=0;swimlaneBody=0;strokeColor=inherit;top=0;left=0;bottom=0;right=0;collapsible=0;dropTarget=0;fillColor=none;points=[[0,0.5],[1,0.5]];portConstraint=eastwest;" vertex="1" parent="_Ipn6IFRlJqgF_Zz0ZzA-73">
          <mxGeometry y="160" width="120" height="40" as="geometry" />
        </mxCell>
        <mxCell id="_Ipn6IFRlJqgF_Zz0ZzA-83" value="&amp;nbsp;class reference&lt;div&gt;.....&lt;/div&gt;" style="shape=partialRectangle;html=1;whiteSpace=wrap;connectable=0;strokeColor=inherit;overflow=hidden;fillColor=none;top=0;left=0;bottom=0;right=0;pointerEvents=1;" vertex="1" parent="_Ipn6IFRlJqgF_Zz0ZzA-82">
          <mxGeometry width="120" height="40" as="geometry">
            <mxRectangle width="120" height="40" as="alternateBounds" />
          </mxGeometry>
        </mxCell>
        <mxCell id="_Ipn6IFRlJqgF_Zz0ZzA-86" value="" style="curved=1;endArrow=classic;html=1;rounded=0;entryX=0;entryY=0.5;entryDx=0;entryDy=0;" edge="1" parent="1" target="_Ipn6IFRlJqgF_Zz0ZzA-78">
          <mxGeometry width="50" height="50" relative="1" as="geometry">
            <mxPoint x="470" y="465" as="sourcePoint" />
            <mxPoint x="520" y="415" as="targetPoint" />
            <Array as="points">
              <mxPoint x="520" y="465" />
              <mxPoint x="470" y="415" />
            </Array>
          </mxGeometry>
        </mxCell>
        <mxCell id="_Ipn6IFRlJqgF_Zz0ZzA-87" value="" style="rounded=0;whiteSpace=wrap;html=1;" vertex="1" parent="1">
          <mxGeometry x="800" y="113" width="220" height="410" as="geometry" />
        </mxCell>
        <mxCell id="_Ipn6IFRlJqgF_Zz0ZzA-88" value="堆" style="text;html=1;align=center;verticalAlign=middle;whiteSpace=wrap;rounded=0;" vertex="1" parent="1">
          <mxGeometry x="880" y="73" width="60" height="30" as="geometry" />
        </mxCell>
        <mxCell id="_Ipn6IFRlJqgF_Zz0ZzA-94" value="" style="endArrow=none;html=1;rounded=0;entryX=1;entryY=0.25;entryDx=0;entryDy=0;exitX=0;exitY=0.25;exitDx=0;exitDy=0;" edge="1" parent="1">
          <mxGeometry width="50" height="50" relative="1" as="geometry">
            <mxPoint x="800" y="200.5" as="sourcePoint" />
            <mxPoint x="1020" y="200.5" as="targetPoint" />
          </mxGeometry>
        </mxCell>
        <mxCell id="_Ipn6IFRlJqgF_Zz0ZzA-95" value="" style="endArrow=none;html=1;rounded=0;entryX=1;entryY=0.25;entryDx=0;entryDy=0;exitX=0;exitY=0.25;exitDx=0;exitDy=0;" edge="1" parent="1">
          <mxGeometry width="50" height="50" relative="1" as="geometry">
            <mxPoint x="800" y="265" as="sourcePoint" />
            <mxPoint x="1020" y="265" as="targetPoint" />
          </mxGeometry>
        </mxCell>
        <mxCell id="_Ipn6IFRlJqgF_Zz0ZzA-96" value="伊甸园区" style="text;html=1;align=center;verticalAlign=middle;whiteSpace=wrap;rounded=0;" vertex="1" parent="1">
          <mxGeometry x="865" y="149.5" width="90" height="27" as="geometry" />
        </mxCell>
        <mxCell id="_Ipn6IFRlJqgF_Zz0ZzA-98" value="" style="endArrow=none;html=1;rounded=0;" edge="1" parent="1">
          <mxGeometry width="50" height="50" relative="1" as="geometry">
            <mxPoint x="909.5" y="265" as="sourcePoint" />
            <mxPoint x="910" y="202" as="targetPoint" />
          </mxGeometry>
        </mxCell>
        <mxCell id="_Ipn6IFRlJqgF_Zz0ZzA-99" value="幸存者1" style="text;html=1;align=center;verticalAlign=middle;whiteSpace=wrap;rounded=0;" vertex="1" parent="1">
          <mxGeometry x="807" y="220" width="90" height="27" as="geometry" />
        </mxCell>
        <mxCell id="_Ipn6IFRlJqgF_Zz0ZzA-100" value="幸存者2" style="text;html=1;align=center;verticalAlign=middle;whiteSpace=wrap;rounded=0;" vertex="1" parent="1">
          <mxGeometry x="920" y="220" width="90" height="27" as="geometry" />
        </mxCell>
        <mxCell id="_Ipn6IFRlJqgF_Zz0ZzA-102" value="老年代" style="text;html=1;align=center;verticalAlign=middle;whiteSpace=wrap;rounded=0;textDirection=vertical-lr;" vertex="1" parent="1">
          <mxGeometry x="880" y="345" width="60" height="80" as="geometry" />
        </mxCell>
        <mxCell id="_Ipn6IFRlJqgF_Zz0ZzA-103" style="edgeStyle=orthogonalEdgeStyle;rounded=0;orthogonalLoop=1;jettySize=auto;html=1;exitX=0.5;exitY=1;exitDx=0;exitDy=0;entryX=0.167;entryY=0;entryDx=0;entryDy=0;entryPerimeter=0;" edge="1" parent="1" source="_Ipn6IFRlJqgF_Zz0ZzA-38" target="_Ipn6IFRlJqgF_Zz0ZzA-19">
          <mxGeometry relative="1" as="geometry" />
        </mxCell>
      </root>
    </mxGraphModel>
  </diagram>
</mxfile>
